<?xml version="1.0" encoding="utf-8"?>
<!-- Generator: Adobe Illustrator 24.0.1, SVG Export Plug-In . SVG Version: 6.00 Build 0)  -->
<svg version="1.1" id="Layer_1" xmlns="http://www.w3.org/2000/svg" xmlns:xlink="http://www.w3.org/1999/xlink" x="0px" y="0px"
	 viewBox="0 0 1149 1149" style="enable-background:new 0 0 1149 1149;" xml:space="preserve">
<rect x="-1.1" y="554.1" width="1149.2" height="42.4"/>
<path d="M262,475.4H-1.1v-42.4H262c6.3,0,156.4-2.6,156.4-159.5V5.1H460v268.3C460,433.2,330.5,475.4,262,475.4z"/>
<path d="M460,1145.6h-41.6V877.3c0-6.5-2.6-159.5-156.4-159.5H-1.1v-42.4H262c156.6,0,198,132.1,198,201.9V1145.6z"/>
<path d="M1148.1,475.4H885.1c-156.6,0-198-132.1-198-201.9V5.1h41.6v268.3c0,6.5,2.6,159.5,156.4,159.5h263.1V475.4z"/>
<path d="M728.7,1145.6h-41.6V877.3c0-159.7,129.5-201.9,198-201.9h263.1v42.4H885.1c-6.3,0-156.4,2.6-156.4,159.5V1145.6z"/>
<rect x="552.7" y="5.1" width="41.6" height="1140.5"/>
</svg>
